{
    "asset" : {
        "generator" : "Khronos glTF Blender I/O v3.2.43",
        "version" : "2.0"
    },
    "scene" : 0,
    "scenes" : [
        {
            "name" : "Scene",
            "nodes" : [
                1,
                3,
                4
            ]
        }
    ],
    "nodes" : [
        {
            "mesh" : 0,
            "name" : "\u041a\u0440\u0443\u0442\u0438\u043b\u043a\u0430. \u0437\u0443\u0431\u0446\u044b1.002",
            "rotation" : [
                0.5613428950309753,
                -0.6866482496261597,
                -0.399404913187027,
                0.23212958872318268
            ],
            "scale" : [
                0.8299798965454102,
                0.8299800157546997,
                0.8299798369407654
            ],
            "translation" : [
                0.0037710811011493206,
                1.9445974826812744,
                -0.02337788976728916
            ]
        },
        {
            "children" : [
                0
            ],
            "mesh" : 1,
            "name" : "\u0422\u0430\u0431\u043b\u0435\u0442\u043a\u0430 \u0431\u0435\u043b\u0430\u044f",
            "rotation" : [
                0.5706844925880432,
                0.570684552192688,
                -0.4175156056880951,
                0.4175155460834503
            ],
            "scale" : [
                0.7542409896850586,
                0.7542409896850586,
                0.7542409896850586
            ],
            "translation" : [
                -0.4018216133117676,
                1.3186049461364746,
                0
            ]
        },
        {
            "mesh" : 2,
            "name" : "\u041a\u0440\u0443\u0442\u0438\u043b\u043a\u0430. \u0437\u0443\u0431\u0446\u044b1.001",
            "rotation" : [
                -0.506356954574585,
                0.36844244599342346,
                -0.46715399622917175,
                0.6241955161094666
            ],
            "scale" : [
                0.8299798965454102,
                0.8299800157546997,
                0.8299798965454102
            ],
            "translation" : [
                0.005962515249848366,
                -1.9847007989883423,
                0.022917483001947403
            ]
        },
        {
            "children" : [
                2
            ],
            "mesh" : 3,
            "name" : "\u0422\u0430\u0431\u043b\u0435\u0442\u043a\u0430 \u0431\u0435\u043b\u0430\u044f.001",
            "rotation" : [
                -0.6408563256263733,
                -0.6408563852310181,
                -0.2988363206386566,
                0.2988363802433014
            ],
            "scale" : [
                0.7542409896850586,
                0.7542409896850586,
                0.7542409896850586
            ],
            "translation" : [
                0.3927431106567383,
                1.3186049461364746,
                0
            ]
        },
        {
            "mesh" : 4,
            "name" : "Cube.006",
            "rotation" : [
                0,
                0.5420965552330017,
                0,
                0.8403162360191345
            ],
            "scale" : [
                0.5119079351425171,
                0.009480660781264305,
                0.5119079351425171
            ],
            "translation" : [
                0,
                1.2098569869995117,
                0
            ]
        }
    ],
    "animations" : [
        {
            "channels" : [
                {
                    "sampler" : 0,
                    "target" : {
                        "node" : 1,
                        "path" : "translation"
                    }
                },
                {
                    "sampler" : 1,
                    "target" : {
                        "node" : 1,
                        "path" : "rotation"
                    }
                }
            ],
            "name" : "\u0422\u0430\u0431\u043b\u0435\u0442\u043a\u0430 \u0431\u0435\u043b\u0430\u044fAction.001",
            "samplers" : [
                {
                    "input" : 20,
                    "interpolation" : "LINEAR",
                    "output" : 21
                },
                {
                    "input" : 22,
                    "interpolation" : "LINEAR",
                    "output" : 23
                }
            ]
        },
        {
            "channels" : [
                {
                    "sampler" : 0,
                    "target" : {
                        "node" : 3,
                        "path" : "translation"
                    }
                },
                {
                    "sampler" : 1,
                    "target" : {
                        "node" : 3,
                        "path" : "rotation"
                    }
                }
            ],
            "name" : "\u0422\u0430\u0431\u043b\u0435\u0442\u043a\u0430 \u0431\u0435\u043b\u0430\u044f.001Action.001",
            "samplers" : [
                {
                    "input" : 20,
                    "interpolation" : "LINEAR",
                    "output" : 24
                },
                {
                    "input" : 25,
                    "interpolation" : "LINEAR",
                    "output" : 26
                }
            ]
        },
        {
            "channels" : [
                {
                    "sampler" : 0,
                    "target" : {
                        "node" : 4,
                        "path" : "rotation"
                    }
                }
            ],
            "name" : "Cube.006Action",
            "samplers" : [
                {
                    "input" : 27,
                    "interpolation" : "LINEAR",
                    "output" : 28
                }
            ]
        }
    ],
    "materials" : [
        {
            "doubleSided" : true,
            "name" : "Material.004",
            "pbrMetallicRoughness" : {
                "baseColorFactor" : [
                    0.04696175083518028,
                    0.04696175083518028,
                    0.04696175083518028,
                    1
                ],
                "metallicFactor" : 0,
                "roughnessFactor" : 0.30000001192092896
            }
        },
        {
            "doubleSided" : true,
            "name" : "Material.005",
            "pbrMetallicRoughness" : {
                "baseColorFactor" : [
                    0.9404078722000122,
                    0.8829375505447388,
                    1,
                    1
                ],
                "metallicRoughnessTexture" : {
                    "index" : 0
                },
                "roughnessFactor" : 0.6000000238418579
            }
        },
        {
            "doubleSided" : true,
            "name" : "Material.001",
            "pbrMetallicRoughness" : {
                "baseColorFactor" : [
                    0.028425561264157295,
                    0.09084141999483109,
                    0.6583746671676636,
                    1
                ],
                "metallicRoughnessTexture" : {
                    "index" : 1
                },
                "roughnessFactor" : 0.6000000238418579
            }
        },
        {
            "doubleSided" : true,
            "name" : "Material.006",
            "pbrMetallicRoughness" : {
                "baseColorFactor" : [
                    0.800000011920929,
                    0.800000011920929,
                    0.800000011920929,
                    1
                ],
                "metallicFactor" : 0.6929134130477905,
                "roughnessFactor" : 0.20000000298023224
            }
        }
    ],
    "meshes" : [
        {
            "name" : "Plane.008",
            "primitives" : [
                {
                    "attributes" : {
                        "POSITION" : 0,
                        "NORMAL" : 1,
                        "TEXCOORD_0" : 2
                    },
                    "indices" : 3,
                    "material" : 0
                }
            ]
        },
        {
            "name" : "Sphere",
            "primitives" : [
                {
                    "attributes" : {
                        "POSITION" : 4,
                        "NORMAL" : 5,
                        "TEXCOORD_0" : 6
                    },
                    "indices" : 7,
                    "material" : 1
                }
            ]
        },
        {
            "name" : "Plane.013",
            "primitives" : [
                {
                    "attributes" : {
                        "POSITION" : 8,
                        "NORMAL" : 9,
                        "TEXCOORD_0" : 10
                    },
                    "indices" : 11,
                    "material" : 0
                }
            ]
        },
        {
            "name" : "Sphere.001",
            "primitives" : [
                {
                    "attributes" : {
                        "POSITION" : 12,
                        "NORMAL" : 13,
                        "TEXCOORD_0" : 14
                    },
                    "indices" : 15,
                    "material" : 2
                }
            ]
        },
        {
            "name" : "Cube.004",
            "primitives" : [
                {
                    "attributes" : {
                        "POSITION" : 16,
                        "NORMAL" : 17,
                        "TEXCOORD_0" : 18
                    },
                    "indices" : 19,
                    "material" : 3
                }
            ]
        }
    ],
    "textures" : [
        {
            "sampler" : 0,
            "source" : 0
        },
        {
            "sampler" : 0,
            "source" : 0
        }
    ],
    "images" : [
        {
            "bufferView" : 8,
            "mimeType" : "image/png",
            "name" : "2"
        }
    ],
    "accessors" : [
        {
            "bufferView" : 0,
            "componentType" : 5126,
            "count" : 2484,
            "max" : [
                2.2847492694854736,
                0.8723872303962708,
                0.6190164089202881
            ],
            "min" : [
                0.5856247544288635,
                -1.0382916927337646,
                -1.3844977617263794
            ],
            "type" : "VEC3"
        },
        {
            "bufferView" : 1,
            "componentType" : 5126,
            "count" : 2484,
            "type" : "VEC3"
        },
        {
            "bufferView" : 2,
            "componentType" : 5126,
            "count" : 2484,
            "type" : "VEC2"
        },
        {
            "bufferView" : 3,
            "componentType" : 5123,
            "count" : 5616,
            "type" : "SCALAR"
        },
        {
            "bufferView" : 4,
            "componentType" : 5126,
            "count" : 2283,
            "max" : [
                1.0111579895019531,
                0.5788935422897339,
                1.0131523609161377
            ],
            "min" : [
                -1.0111576318740845,
                -1.3907415866851807,
                -1.0091626644134521
            ],
            "type" : "VEC3"
        },
        {
            "bufferView" : 5,
            "componentType" : 5126,
            "count" : 2283,
            "type" : "VEC3"
        },
        {
            "bufferView" : 6,
            "componentType" : 5126,
            "count" : 2283,
            "type" : "VEC2"
        },
        {
            "bufferView" : 7,
            "componentType" : 5123,
            "count" : 5664,
            "type" : "SCALAR"
        },
        {
            "bufferView" : 9,
            "componentType" : 5126,
            "count" : 2484,
            "max" : [
                -0.5943647623062134,
                1.0158369541168213,
                1.396425724029541
            ],
            "min" : [
                -2.303370952606201,
                -0.895509660243988,
                -0.5850418210029602
            ],
            "type" : "VEC3"
        },
        {
            "bufferView" : 10,
            "componentType" : 5126,
            "count" : 2484,
            "type" : "VEC3"
        },
        {
            "bufferView" : 11,
            "componentType" : 5126,
            "count" : 2484,
            "type" : "VEC2"
        },
        {
            "bufferView" : 12,
            "componentType" : 5123,
            "count" : 5616,
            "type" : "SCALAR"
        },
        {
            "bufferView" : 13,
            "componentType" : 5126,
            "count" : 2166,
            "max" : [
                1.0175297260284424,
                1.3907365798950195,
                1.0195238590240479
            ],
            "min" : [
                -1.0175291299819946,
                -0.5788984298706055,
                -1.0155342817306519
            ],
            "type" : "VEC3"
        },
        {
            "bufferView" : 14,
            "componentType" : 5126,
            "count" : 2166,
            "type" : "VEC3"
        },
        {
            "bufferView" : 15,
            "componentType" : 5126,
            "count" : 2166,
            "type" : "VEC2"
        },
        {
            "bufferView" : 16,
            "componentType" : 5123,
            "count" : 5280,
            "type" : "SCALAR"
        },
        {
            "bufferView" : 17,
            "componentType" : 5126,
            "count" : 68,
            "max" : [
                1,
                80.96343994140625,
                1.0000001192092896
            ],
            "min" : [
                -1,
                -55.23371887207031,
                -1
            ],
            "type" : "VEC3"
        },
        {
            "bufferView" : 18,
            "componentType" : 5126,
            "count" : 68,
            "type" : "VEC3"
        },
        {
            "bufferView" : 19,
            "componentType" : 5126,
            "count" : 68,
            "type" : "VEC2"
        },
        {
            "bufferView" : 20,
            "componentType" : 5123,
            "count" : 84,
            "type" : "SCALAR"
        },
        {
            "bufferView" : 21,
            "componentType" : 5126,
            "count" : 241,
            "max" : [
                2
            ],
            "min" : [
                0
            ],
            "type" : "SCALAR"
        },
        {
            "bufferView" : 22,
            "componentType" : 5126,
            "count" : 241,
            "type" : "VEC3"
        },
        {
            "bufferView" : 23,
            "componentType" : 5126,
            "count" : 712,
            "max" : [
                8
            ],
            "min" : [
                2.075
            ],
            "type" : "SCALAR"
        },
        {
            "bufferView" : 24,
            "componentType" : 5126,
            "count" : 712,
            "type" : "VEC4"
        },
        {
            "bufferView" : 25,
            "componentType" : 5126,
            "count" : 241,
            "type" : "VEC3"
        },
        {
            "bufferView" : 26,
            "componentType" : 5126,
            "count" : 710,
            "max" : [
                8
            ],
            "min" : [
                2.091666666666667
            ],
            "type" : "SCALAR"
        },
        {
            "bufferView" : 27,
            "componentType" : 5126,
            "count" : 710,
            "type" : "VEC4"
        },
        {
            "bufferView" : 28,
            "componentType" : 5126,
            "count" : 662,
            "max" : [
                8
            ],
            "min" : [
                2.4916666666666667
            ],
            "type" : "SCALAR"
        },
        {
            "bufferView" : 29,
            "componentType" : 5126,
            "count" : 662,
            "type" : "VEC4"
        }
    ],
    "bufferViews" : [
        {
            "buffer" : 0,
            "byteLength" : 29808,
            "byteOffset" : 0
        },
        {
            "buffer" : 0,
            "byteLength" : 29808,
            "byteOffset" : 29808
        },
        {
            "buffer" : 0,
            "byteLength" : 19872,
            "byteOffset" : 59616
        },
        {
            "buffer" : 0,
            "byteLength" : 11232,
            "byteOffset" : 79488
        },
        {
            "buffer" : 0,
            "byteLength" : 27396,
            "byteOffset" : 90720
        },
        {
            "buffer" : 0,
            "byteLength" : 27396,
            "byteOffset" : 118116
        },
        {
            "buffer" : 0,
            "byteLength" : 18264,
            "byteOffset" : 145512
        },
        {
            "buffer" : 0,
            "byteLength" : 11328,
            "byteOffset" : 163776
        },
        {
            "buffer" : 0,
            "byteLength" : 2059898,
            "byteOffset" : 175104
        },
        {
            "buffer" : 0,
            "byteLength" : 29808,
            "byteOffset" : 2235004
        },
        {
            "buffer" : 0,
            "byteLength" : 29808,
            "byteOffset" : 2264812
        },
        {
            "buffer" : 0,
            "byteLength" : 19872,
            "byteOffset" : 2294620
        },
        {
            "buffer" : 0,
            "byteLength" : 11232,
            "byteOffset" : 2314492
        },
        {
            "buffer" : 0,
            "byteLength" : 25992,
            "byteOffset" : 2325724
        },
        {
            "buffer" : 0,
            "byteLength" : 25992,
            "byteOffset" : 2351716
        },
        {
            "buffer" : 0,
            "byteLength" : 17328,
            "byteOffset" : 2377708
        },
        {
            "buffer" : 0,
            "byteLength" : 10560,
            "byteOffset" : 2395036
        },
        {
            "buffer" : 0,
            "byteLength" : 816,
            "byteOffset" : 2405596
        },
        {
            "buffer" : 0,
            "byteLength" : 816,
            "byteOffset" : 2406412
        },
        {
            "buffer" : 0,
            "byteLength" : 544,
            "byteOffset" : 2407228
        },
        {
            "buffer" : 0,
            "byteLength" : 168,
            "byteOffset" : 2407772
        },
        {
            "buffer" : 0,
            "byteLength" : 964,
            "byteOffset" : 2407940
        },
        {
            "buffer" : 0,
            "byteLength" : 2892,
            "byteOffset" : 2408904
        },
        {
            "buffer" : 0,
            "byteLength" : 2848,
            "byteOffset" : 2411796
        },
        {
            "buffer" : 0,
            "byteLength" : 11392,
            "byteOffset" : 2414644
        },
        {
            "buffer" : 0,
            "byteLength" : 2892,
            "byteOffset" : 2426036
        },
        {
            "buffer" : 0,
            "byteLength" : 2840,
            "byteOffset" : 2428928
        },
        {
            "buffer" : 0,
            "byteLength" : 11360,
            "byteOffset" : 2431768
        },
        {
            "buffer" : 0,
            "byteLength" : 2648,
            "byteOffset" : 2443128
        },
        {
            "buffer" : 0,
            "byteLength" : 10592,
            "byteOffset" : 2445776
        }
    ],
    "samplers" : [
        {
            "magFilter" : 9729,
            "minFilter" : 9987
        }
    ],
    "buffers" : [
        {
            "byteLength" : 2456368,
            "uri" : "data:application/octet-stream;base64,"
        }
    ]
}
