{
    "asset" : {
        "generator" : "Khronos glTF Blender I/O v3.3.32",
        "version" : "2.0"
    },
    "scene" : 0,
    "scenes" : [
        {
            "name" : "Scene",
            "nodes" : [
                1
            ]
        }
    ],
    "nodes" : [
        {
            "mesh" : 0,
            "name" : "Icon",
            "rotation" : [
                0,
                -0.3826834559440613,
                0,
                0.9238795638084412
            ],
            "scale" : [
                0.07489968836307526,
                0.14274154603481293,
                0.07489968836307526
            ],
            "translation" : [
                0,
                0,
                -0.004421830177307129
            ]
        },
        {
            "children" : [
                0
            ],
            "mesh" : 1,
            "name" : "Coin",
            "rotation" : [
                0.7071068286895752,
                0,
                0,
                0.7071068286895752
            ]
        }
    ],
    "materials" : [
        {
            "doubleSided" : true,
            "name" : "Material",
            "pbrMetallicRoughness" : {
                "baseColorFactor" : [
                    0.9961220622062683,
                    1,
                    0.9335137605667114,
                    1
                ],
                "roughnessFactor" : 0.699999988079071
            }
        },
        {
            "doubleSided" : true,
            "name" : "Material.004",
            "pbrMetallicRoughness" : {
                "baseColorFactor" : [
                    0.08679407835006714,
                    0.09423170238733292,
                    0.8000000715255737,
                    1
                ],
                "roughnessFactor" : 0.20000000298023224
            }
        }
    ],
    "meshes" : [
        {
            "name" : "Plane",
            "primitives" : [
                {
                    "attributes" : {
                        "POSITION" : 0,
                        "NORMAL" : 1,
                        "TEXCOORD_0" : 2
                    },
                    "indices" : 3,
                    "material" : 0
                }
            ]
        },
        {
            "name" : "Circle.004",
            "primitives" : [
                {
                    "attributes" : {
                        "POSITION" : 4,
                        "NORMAL" : 5,
                        "TEXCOORD_0" : 6
                    },
                    "indices" : 7,
                    "material" : 1
                }
            ]
        }
    ],
    "accessors" : [
        {
            "bufferView" : 0,
            "componentType" : 5126,
            "count" : 75405,
            "max" : [
                12.729865074157715,
                0.6057674288749695,
                12.605672836303711
            ],
            "min" : [
                -12.757762908935547,
                -0.588857114315033,
                -12.404176712036133
            ],
            "type" : "VEC3"
        },
        {
            "bufferView" : 1,
            "componentType" : 5126,
            "count" : 75405,
            "type" : "VEC3"
        },
        {
            "bufferView" : 2,
            "componentType" : 5126,
            "count" : 75405,
            "type" : "VEC2"
        },
        {
            "bufferView" : 3,
            "componentType" : 5125,
            "count" : 102456,
            "type" : "SCALAR"
        },
        {
            "bufferView" : 4,
            "componentType" : 5126,
            "count" : 1186,
            "max" : [
                1,
                0.07788946479558945,
                1
            ],
            "min" : [
                -1,
                -0.07788944989442825,
                -1
            ],
            "type" : "VEC3"
        },
        {
            "bufferView" : 5,
            "componentType" : 5126,
            "count" : 1186,
            "type" : "VEC3"
        },
        {
            "bufferView" : 6,
            "componentType" : 5126,
            "count" : 1186,
            "type" : "VEC2"
        },
        {
            "bufferView" : 7,
            "componentType" : 5123,
            "count" : 5952,
            "type" : "SCALAR"
        }
    ],
    "bufferViews" : [
        {
            "buffer" : 0,
            "byteLength" : 904860,
            "byteOffset" : 0,
            "target" : 34962
        },
        {
            "buffer" : 0,
            "byteLength" : 904860,
            "byteOffset" : 904860,
            "target" : 34962
        },
        {
            "buffer" : 0,
            "byteLength" : 603240,
            "byteOffset" : 1809720,
            "target" : 34962
        },
        {
            "buffer" : 0,
            "byteLength" : 409824,
            "byteOffset" : 2412960,
            "target" : 34963
        },
        {
            "buffer" : 0,
            "byteLength" : 14232,
            "byteOffset" : 2822784,
            "target" : 34962
        },
        {
            "buffer" : 0,
            "byteLength" : 14232,
            "byteOffset" : 2837016,
            "target" : 34962
        },
        {
            "buffer" : 0,
            "byteLength" : 9488,
            "byteOffset" : 2851248,
            "target" : 34962
        },
        {
            "buffer" : 0,
            "byteLength" : 11904,
            "byteOffset" : 2860736,
            "target" : 34963
        }
    ],
    "buffers" : [
        {
            "byteLength" : 2872640,
            "uri" : "data:application/octet-stream;base64,"
        }
    ]
}
